<?xml version="1.0" encoding="utf-8"?>
<!-- Generator: Adobe Illustrator 23.1.1, SVG Export Plug-In . SVG Version: 6.00 Build 0)  -->
<svg version="1.1"
	 id="Layer_1" xmlns:cc="http://creativecommons.org/ns#" xmlns:dc="http://purl.org/dc/elements/1.1/" xmlns:inkscape="http://www.inkscape.org/namespaces/inkscape" xmlns:rdf="http://www.w3.org/1999/02/22-rdf-syntax-ns#" xmlns:sodipodi="http://sodipodi.sourceforge.net/DTD/sodipodi-0.dtd" xmlns:svg="http://www.w3.org/2000/svg"
	 xmlns="http://www.w3.org/2000/svg" xmlns:xlink="http://www.w3.org/1999/xlink" x="0px" y="0px" viewBox="0 0 48 48.3"
	 style="enable-background:new 0 0 48 48.3;" xml:space="preserve">
<path d="M39.3,16.8c0-8.5-6.9-15.4-15.3-15.4S8.7,8.3,8.7,16.8V27H4.3v13h11.6c0.7,3.9,4,6.8,8,6.8h0.2c4,0,7.4-2.9,8-6.8h11.6V27
	h-4.4V16.8z M11.7,16.8C11.7,10,17.2,4.4,24,4.4S36.3,10,36.3,16.8V27H11.7V16.8z M24.1,43.9h-0.2c-2.3,0-4.4-1.6-5-3.8h10.1
	C28.5,42.3,26.4,43.9,24.1,43.9z M40.7,37.1H7.3V30h33.4V37.1z"/>
</svg>
