<?xml version="1.0" encoding="utf-8"?>
<!-- Generator: Adobe Illustrator 23.1.1, SVG Export Plug-In . SVG Version: 6.00 Build 0)  -->
<svg version="1.1"
	 id="Layer_1" xmlns:cc="http://creativecommons.org/ns#" xmlns:dc="http://purl.org/dc/elements/1.1/" xmlns:inkscape="http://www.inkscape.org/namespaces/inkscape" xmlns:rdf="http://www.w3.org/1999/02/22-rdf-syntax-ns#" xmlns:sodipodi="http://sodipodi.sourceforge.net/DTD/sodipodi-0.dtd" xmlns:svg="http://www.w3.org/2000/svg"
	 xmlns="http://www.w3.org/2000/svg" xmlns:xlink="http://www.w3.org/1999/xlink" x="0px" y="0px" viewBox="0 0 48 48.3"
	 style="enable-background:new 0 0 48 48.3;" xml:space="preserve">
<g>
	<path d="M26.5,13.5l-3.4,3.4l3,3l8.5-8.5L26.1,3l-3,3l3.4,3.4H24c-11.7,0-21.2,9.5-21.2,21.2h4.2c0-9.3,7.6-16.9,16.9-16.9H26.5z"
		/>
	<path d="M45.2,17.8h-4.2c0,9.3-7.6,16.9-16.9,16.9h-2.5l3.4-3.4l-3-3l-8.5,8.5l8.5,8.5l3-3L21.5,39H24C35.7,39,45.2,29.4,45.2,17.8
		z"/>
</g>
</svg>
