<?xml version="1.0" encoding="utf-8"?>
<!-- Generator: Adobe Illustrator 23.1.1, SVG Export Plug-In . SVG Version: 6.00 Build 0)  -->
<svg version="1.1"
	 id="Layer_1" xmlns:cc="http://creativecommons.org/ns#" xmlns:dc="http://purl.org/dc/elements/1.1/" xmlns:inkscape="http://www.inkscape.org/namespaces/inkscape" xmlns:rdf="http://www.w3.org/1999/02/22-rdf-syntax-ns#" xmlns:sodipodi="http://sodipodi.sourceforge.net/DTD/sodipodi-0.dtd" xmlns:svg="http://www.w3.org/2000/svg"
	 xmlns="http://www.w3.org/2000/svg" xmlns:xlink="http://www.w3.org/1999/xlink" x="0px" y="0px" viewBox="0 0 48 48.3"
	 style="enable-background:new 0 0 48 48.3;" xml:space="preserve">
<style type="text/css">
	.st0{fill-rule:evenodd;clip-rule:evenodd;}
</style>
<g transform="translate(0,-1004.3622)">
	<path class="st0" d="M1,1004.4c-0.6,0-1,0.4-1,1v46c0,0.6,0.4,1,1,1h37c0.6,0,1-0.4,1-1v-15c0-0.6-0.4-1-1-1c-0.6,0-1,0.4-1,1
		c0,0,0,0,0,0v14H2v-44h26v10c0,0.5,0.4,1,1,1c0,0,0,0,0,0h8c0,0,0,0,0,0v9c0,0.6,0.4,1,1,1c0.6,0,1-0.4,1-1c0,0,0,0,0,0v-10
		c0-0.2-0.1-0.5-0.2-0.6l-9-11c-0.2-0.2-0.5-0.4-0.8-0.4H1z M30,1008.2l6,7.3h-6V1008.2z"/>
	<path class="st0" d="M42.5,1021.4c-0.3,0-0.5,0.1-0.7,0.3L27,1036.5c-0.1,0.1-0.2,0.2-0.2,0.4l-2.7,7.2c-0.2,0.5,0.1,1.1,0.6,1.3
		c0.2,0.1,0.5,0.1,0.7,0l7.2-2.7c0.1-0.1,0.3-0.1,0.4-0.2l14.8-14.8c0.4-0.4,0.4-1,0-1.4l-4.5-4.5
		C43,1021.5,42.8,1021.4,42.5,1021.4z M42.5,1023.8l3.1,3.1l-13.3,13.3l-3.1-3.1L42.5,1023.8z M28.1,1038.9l2.3,2.3l-3.7,1.4
		L28.1,1038.9z"/>
	<path class="st0" d="M7,1021.4c-0.6,0-1,0.4-1,1c0,0.6,0.4,1,1,1c0,0,0,0,0,0h22c0.6,0,1-0.4,1-1c0-0.6-0.4-1-1-1c0,0,0,0,0,0H7z"
		/>
	<path class="st0" d="M7,1033.4c-0.6,0-1,0.4-1,1s0.4,1,1,1c0,0,0,0,0,0h11c0.6,0,1-0.4,1-1s-0.4-1-1-1c0,0,0,0,0,0H7z"/>
	<path class="st0" d="M7,1039.4c-0.6,0-1,0.4-1,1s0.4,1,1,1c0,0,0,0,0,0h11c0.6,0,1-0.4,1-1s-0.4-1-1-1c0,0,0,0,0,0H7z"/>
	<path class="st0" d="M7,1027.4c-0.6,0-1,0.4-1,1s0.4,1,1,1c0,0,0,0,0,0h22c0.6,0,1-0.4,1-1s-0.4-1-1-1c0,0,0,0,0,0H7z"/>
</g>
</svg>
